{"glyphs":{" ":{"ha":833,"x_min":0,"x_max":0,"o":""},"-":{"ha":833,"x_min":191,"x_max":756,"o":"m 191 359 l 756 359 l 756 512 l 191 512 l 191 359 z "},".":{"ha":833,"x_min":286,"x_max":548,"o":"m 286 109 l 286 109 q 321 22 286 57 q 417 -14 357 -14 l 417 -14 q 512 21 477 -14 q 548 109 548 56 l 548 109 q 513 198 548 162 q 417 234 478 234 l 417 234 q 321 198 355 234 q 286 109 286 161 z "},"/":{"ha":833,"x_min":149,"x_max":694,"o":"m 149 -85 l 325 -85 l 694 987 l 519 987 l 149 -85 z "},"@":{"ha":833,"x_min":25,"x_max":796,"o":"m 793 558 l 793 558 q 774 730 796 652 q 707 863 751 807 l 707 863 q 598 948 663 918 q 454 978 534 978 l 454 978 q 285 938 361 978 q 153 827 208 897 l 153 827 q 64 663 96 757 q 28 461 32 568 l 28 461 q 46 267 25 353 q 115 120 68 180 l 115 120 q 233 27 161 60 q 404 -5 305 -5 l 404 -5 q 452 -2 427 -5 q 503 7 477 1 l 503 7 q 550 23 528 14 q 591 45 573 33 l 591 45 l 569 137 q 534 122 553 129 q 494 111 515 115 l 494 111 q 450 102 472 105 q 406 100 427 100 l 406 100 q 289 122 340 100 q 204 190 237 144 l 204 190 q 154 302 170 235 q 142 461 138 370 l 142 461 q 167 627 144 551 q 229 758 189 703 l 229 758 q 322 843 267 812 q 447 874 378 874 l 447 874 q 555 855 508 874 q 633 797 602 836 l 633 797 q 679 697 664 758 q 690 553 693 636 l 690 553 q 685 455 690 500 q 668 377 679 410 l 668 377 q 643 326 657 345 q 610 308 628 308 l 610 308 q 597 309 604 308 q 585 316 590 311 l 585 316 q 577 332 580 321 q 576 363 575 343 l 576 363 l 606 720 q 551 756 585 741 q 465 772 517 772 l 465 772 q 372 750 413 772 q 300 690 330 729 l 300 690 q 250 594 269 650 q 223 469 231 538 l 223 469 q 225 362 218 410 q 251 280 232 314 l 251 280 q 300 227 270 245 q 372 209 331 209 l 372 209 q 410 215 392 209 q 445 233 429 222 l 445 233 q 466 252 456 241 q 485 275 476 262 l 485 275 q 502 249 492 260 q 523 229 511 237 l 523 229 q 555 213 537 218 q 592 208 572 208 l 592 208 q 682 238 644 208 q 743 319 719 269 l 743 319 q 779 432 767 369 q 793 558 791 494 z m 340 469 l 340 469 q 356 554 345 517 q 382 616 366 591 l 382 616 q 421 655 399 642 q 474 668 444 668 l 474 668 q 487 667 482 668 q 495 666 492 667 l 495 666 l 469 363 l 469 354 q 456 338 463 345 q 444 326 450 331 l 444 326 q 424 316 434 319 q 403 313 413 313 l 403 313 q 373 323 386 313 q 352 354 360 333 l 352 354 q 341 402 345 373 q 340 469 338 431 z "},"A":{"ha":833,"x_min":19,"x_max":833,"o":"m 278 206 l 574 206 l 632 0 l 833 0 l 515 987 l 342 987 l 19 0 l 220 0 l 278 206 z m 530 368 l 325 368 l 429 732 l 530 368 z "},"B":{"ha":833,"x_min":87,"x_max":799,"o":"m 87 987 l 87 0 l 448 0 q 594 18 529 0 q 705 73 659 37 l 705 73 q 774 164 750 110 q 799 290 799 218 l 799 290 q 789 362 799 327 q 759 427 779 397 l 759 427 q 710 475 739 454 q 633 510 682 496 l 633 510 l 633 511 q 679 534 658 520 q 715 564 699 547 l 715 564 q 761 633 745 593 q 777 718 776 673 l 777 718 q 751 838 777 787 q 679 922 726 888 l 679 922 q 566 971 632 955 q 419 987 500 987 l 419 987 l 87 987 z m 279 154 l 279 435 l 456 435 q 526 425 496 435 q 573 395 555 414 l 573 395 q 600 351 591 377 q 608 291 608 324 l 608 291 q 597 233 608 259 q 564 189 586 208 l 564 189 q 515 163 545 173 q 448 154 486 154 l 448 154 l 279 154 z m 420 573 l 279 573 l 279 832 l 420 832 q 500 822 466 831 q 555 791 534 812 l 555 791 q 578 754 570 777 q 586 702 586 732 l 586 702 q 577 651 586 673 q 551 613 568 629 l 551 613 q 497 584 530 593 q 420 573 464 574 l 420 573 z "},"C":{"ha":833,"x_min":54,"x_max":775,"o":"m 774 309 l 774 309 l 584 309 q 569 233 581 264 q 536 180 557 201 l 536 180 q 485 151 515 160 q 418 141 455 141 l 418 141 q 367 148 390 141 q 326 168 345 154 l 326 168 q 296 198 309 180 q 273 240 283 216 l 273 240 q 253 321 260 275 q 247 427 247 368 l 247 427 l 247 561 q 251 642 247 604 q 264 711 255 680 l 264 711 q 295 781 275 751 q 342 827 314 811 l 342 827 q 377 842 358 837 q 419 846 397 846 l 419 846 q 491 835 461 846 q 542 802 522 824 l 542 802 q 572 747 562 780 q 585 669 583 713 l 585 669 l 775 669 q 743 808 768 747 q 672 913 717 870 l 672 913 q 564 979 627 956 q 419 1002 500 1002 l 419 1002 q 316 988 364 1002 q 229 948 269 974 l 229 948 q 149 873 184 918 q 92 773 113 829 l 92 773 q 63 673 73 727 q 54 559 54 619 l 54 559 l 54 427 q 64 306 54 363 q 94 201 75 249 l 94 201 q 144 115 115 154 q 212 47 174 75 l 212 47 q 305 2 253 18 q 418 -14 357 -14 l 418 -14 q 559 8 495 -14 q 669 73 623 31 l 669 73 q 742 175 715 115 q 774 309 770 235 z "},"D":{"ha":833,"x_min":85,"x_max":773,"o":"m 85 987 l 85 0 l 350 0 q 474 16 416 0 q 580 63 532 33 l 580 63 q 656 127 621 89 q 716 211 690 165 l 716 211 q 758 323 743 262 q 773 452 773 384 l 773 452 l 773 534 q 757 668 773 605 q 712 783 741 731 l 712 783 q 653 862 687 826 q 577 924 620 899 l 577 924 q 469 971 528 954 q 340 987 409 987 l 340 987 l 85 987 z m 277 153 l 277 833 l 340 833 q 405 825 375 833 q 458 803 434 817 l 458 803 q 514 754 490 784 q 553 686 538 724 l 553 686 q 572 616 566 654 q 578 535 578 578 l 578 535 l 578 452 q 572 368 578 407 q 553 297 566 329 l 553 297 q 518 233 538 260 q 471 188 497 205 l 471 188 q 416 162 446 171 q 350 153 385 153 l 350 153 l 277 153 z "},"E":{"ha":833,"x_min":100,"x_max":765,"o":"m 291 433 l 696 433 l 696 583 l 291 583 l 291 832 l 763 832 l 763 987 l 100 987 l 100 0 l 765 0 l 765 154 l 291 154 l 291 433 z "},"H":{"ha":833,"x_min":83,"x_max":741,"o":"m 552 0 l 741 0 l 741 987 l 552 987 l 552 583 l 273 583 l 273 987 l 83 987 l 83 0 l 273 0 l 273 428 l 552 428 l 552 0 z "},"I":{"ha":833,"x_min":131,"x_max":702,"o":"m 702 987 l 131 987 l 131 833 l 319 833 l 319 153 l 131 153 l 131 0 l 702 0 l 702 153 l 509 153 l 509 833 l 702 833 l 702 987 z "},"L":{"ha":833,"x_min":102,"x_max":755,"o":"m 755 154 l 293 154 l 293 987 l 102 987 l 102 0 l 755 0 l 755 154 z "},"M":{"ha":833,"x_min":86,"x_max":760,"o":"m 416 616 l 323 987 l 86 987 l 86 0 l 261 0 l 261 292 l 253 736 l 369 326 l 463 326 l 593 754 l 585 292 l 585 0 l 760 0 l 760 987 l 523 987 l 416 616 z "},"N":{"ha":833,"x_min":83,"x_max":740,"o":"m 550 0 l 740 0 l 740 987 l 549 987 l 548 353 l 275 987 l 83 987 l 83 0 l 275 0 l 275 637 l 550 0 z "},"O":{"ha":833,"x_min":54,"x_max":778,"o":"m 778 421 l 778 421 l 778 565 q 765 692 778 632 q 729 802 753 751 l 729 802 q 677 882 707 846 q 607 945 647 919 l 607 945 q 517 986 567 972 q 410 1001 467 1001 l 410 1001 q 306 987 354 1001 q 219 946 258 972 l 219 946 q 150 881 180 919 q 98 796 119 843 l 98 796 q 65 688 77 747 q 54 565 54 630 l 54 565 l 54 421 q 64 305 54 360 q 93 203 74 250 l 93 203 q 145 112 114 153 q 216 43 176 72 l 216 43 q 304 1 256 16 q 411 -14 353 -14 l 411 -14 q 512 0 465 -14 q 599 37 559 13 l 599 37 q 676 104 642 64 q 733 194 710 145 l 733 194 q 766 300 755 243 q 778 421 778 357 z m 585 566 l 585 566 l 585 421 q 581 351 585 385 q 570 288 577 317 l 570 288 q 544 223 560 252 q 505 175 528 194 l 505 175 q 463 151 487 159 q 411 143 439 143 l 411 143 q 358 152 381 143 q 316 177 334 161 l 316 177 q 282 225 296 195 q 260 290 267 254 l 260 290 q 250 352 253 319 q 248 421 248 385 l 248 421 l 248 566 q 251 639 248 604 q 260 703 254 673 l 260 703 q 285 769 269 741 q 324 817 301 798 l 324 817 q 362 836 341 829 q 410 843 384 843 l 410 843 q 461 836 438 843 q 502 814 484 828 l 502 814 q 542 767 525 796 q 569 702 559 739 l 569 702 q 581 638 577 673 q 585 566 585 604 z "},"P":{"ha":833,"x_min":101,"x_max":791,"o":"m 292 0 l 292 362 l 439 362 q 585 385 519 362 q 696 450 650 408 l 696 450 q 766 547 741 490 q 791 669 791 603 l 791 669 q 766 799 791 741 q 696 899 741 857 l 696 899 q 585 964 650 941 q 439 987 519 987 l 439 987 l 101 987 l 101 0 l 292 0 z m 439 517 l 292 517 l 292 833 l 439 833 q 509 820 479 833 q 559 785 539 807 l 559 785 q 589 732 579 762 q 599 668 599 703 l 599 668 q 589 611 599 638 q 559 562 579 583 l 559 562 q 509 529 539 541 q 439 517 479 517 l 439 517 z "},"Q":{"ha":833,"x_min":58,"x_max":825,"o":"m 784 391 l 784 391 l 784 562 q 777 662 784 614 q 754 752 769 710 l 754 752 q 699 860 734 812 q 616 941 663 908 l 616 941 q 524 985 575 970 q 415 1001 473 1001 l 415 1001 q 307 985 357 1001 q 218 941 258 970 l 218 941 q 142 866 174 910 q 91 766 110 821 l 91 766 q 66 670 75 722 q 58 562 58 618 l 58 562 l 58 391 q 66 296 58 342 q 92 208 75 250 l 92 208 q 142 119 111 161 q 214 48 173 78 l 214 48 q 305 3 255 19 q 415 -14 355 -14 l 415 -14 q 466 -10 441 -14 q 515 -1 491 -7 l 515 -1 l 703 -174 l 825 -65 l 662 83 q 709 138 688 108 q 745 201 730 168 l 745 201 q 773 292 764 244 q 784 391 783 340 z m 591 564 l 591 564 l 591 391 q 587 337 591 364 q 577 286 584 311 l 577 286 q 551 223 568 252 q 511 174 534 194 l 511 174 q 468 152 492 160 q 415 143 444 143 l 415 143 q 364 151 387 143 q 324 174 341 159 l 324 174 q 285 224 300 194 q 261 290 269 254 l 261 290 q 253 340 256 314 q 251 391 251 366 l 251 391 l 251 564 q 253 622 251 594 q 259 675 255 650 l 259 675 q 281 754 266 719 q 322 811 296 789 l 322 811 q 363 835 340 827 q 415 843 386 843 l 415 843 q 470 834 446 843 q 514 810 495 825 l 514 810 q 549 765 534 791 q 573 707 565 739 l 573 707 q 587 640 583 677 q 591 564 591 604 z "},"R":{"ha":833,"x_min":89,"x_max":814,"o":"m 279 369 l 424 369 l 610 0 l 814 0 l 814 9 l 602 416 q 675 460 642 435 q 732 519 708 485 l 732 519 q 767 594 755 552 q 780 690 780 637 l 780 690 q 754 819 780 763 q 682 911 729 874 l 682 911 q 568 968 635 949 q 420 987 502 987 l 420 987 l 89 987 l 89 0 l 279 0 l 279 369 z m 420 524 l 279 524 l 279 833 l 420 833 q 490 823 459 833 q 541 796 520 814 l 541 796 q 577 746 565 777 q 589 677 589 716 l 589 677 q 579 618 589 644 q 553 572 570 591 l 553 572 q 498 536 532 549 q 420 524 465 524 l 420 524 z "},"S":{"ha":833,"x_min":60,"x_max":789,"o":"m 602 258 l 602 258 q 591 209 602 231 q 559 172 580 187 l 559 172 q 510 147 539 156 q 442 138 480 138 l 442 138 q 364 148 399 138 q 303 178 328 157 l 303 178 q 263 230 277 198 q 248 307 249 262 l 248 307 l 60 307 q 90 173 60 230 q 170 74 119 116 l 170 74 q 296 9 224 31 q 442 -13 368 -13 l 442 -13 q 581 5 517 -13 q 691 58 645 23 l 691 58 q 763 143 737 93 q 789 259 789 194 l 789 259 q 755 392 789 334 q 662 493 720 450 l 662 493 q 577 540 623 519 q 480 574 531 560 l 480 574 q 395 602 433 587 q 331 635 357 617 l 331 635 q 291 675 304 653 q 277 726 277 698 l 277 726 q 287 775 277 752 q 318 814 298 798 l 318 814 q 368 840 338 831 q 435 849 397 849 l 435 849 q 508 838 477 849 q 559 807 538 827 l 559 807 q 590 759 580 787 q 602 698 601 731 l 602 698 l 788 698 q 762 820 788 764 q 690 916 736 876 l 690 916 q 580 979 644 956 q 439 1001 516 1001 l 439 1001 q 300 982 364 1001 q 190 926 237 962 l 190 926 q 117 840 143 890 q 90 726 90 789 l 90 726 q 110 626 90 672 q 170 542 130 580 l 170 542 q 271 472 209 504 q 415 418 333 440 l 415 418 q 504 387 468 404 q 562 351 539 370 l 562 351 q 592 307 583 330 q 602 258 602 284 z "},"T":{"ha":833,"x_min":18,"x_max":814,"o":"m 510 832 l 814 832 l 814 987 l 18 987 l 18 832 l 319 832 l 319 0 l 510 0 l 510 832 z "},"U":{"ha":833,"x_min":85,"x_max":747,"o":"m 747 333 l 747 987 l 557 987 l 557 333 q 547 248 556 285 q 518 187 537 212 l 518 187 q 474 152 500 163 q 412 140 447 140 l 412 140 q 356 151 380 140 q 315 184 332 162 l 315 184 q 287 246 296 209 q 277 333 278 283 l 277 333 l 277 987 l 86 987 l 85 333 q 109 185 85 250 q 175 77 132 121 l 175 77 q 278 9 218 33 q 412 -14 338 -14 l 412 -14 q 554 9 492 -14 q 659 77 616 33 l 659 77 q 725 186 702 121 q 747 333 747 250 l 747 333 z "},"W":{"ha":833,"x_min":18,"x_max":819,"o":"m 18 987 l 153 0 l 326 0 l 408 533 l 416 583 l 423 533 l 509 0 l 682 0 l 819 987 l 644 987 l 576 434 l 572 393 l 566 433 l 483 987 l 347 987 l 269 437 l 262 397 l 258 435 l 192 987 l 18 987 z "},"_":{"ha":833,"x_min":100,"x_max":719,"o":"m 100 -147 l 719 -147 l 719 0 l 100 0 l 100 -147 z "},"a":{"ha":833,"x_min":78,"x_max":745,"o":"m 554 0 l 554 0 l 745 0 l 745 12 q 724 78 731 39 q 716 176 716 117 l 716 176 l 716 490 q 692 603 716 554 q 627 683 669 651 l 627 683 q 527 731 585 715 q 404 747 470 747 l 404 747 q 272 729 330 747 q 176 678 215 710 l 176 678 q 115 604 136 646 q 94 515 94 562 l 94 515 l 283 515 q 289 551 283 535 q 307 579 294 568 l 307 579 q 342 599 320 592 q 393 606 363 606 l 393 606 q 453 598 427 606 q 495 574 478 589 l 495 574 q 519 538 511 559 q 528 492 528 517 l 528 492 l 528 448 l 422 448 q 278 434 341 448 q 173 391 216 419 l 173 391 q 102 314 125 361 q 78 205 78 267 l 78 205 q 97 118 78 158 q 150 48 116 77 l 150 48 q 231 3 184 19 q 334 -14 278 -14 l 334 -14 q 399 -7 369 -14 q 454 11 429 -1 l 454 11 q 498 37 478 22 q 534 68 519 52 l 534 68 q 543 31 538 49 q 554 0 547 14 z m 374 132 l 374 132 q 328 139 348 132 q 294 156 308 145 l 294 156 q 274 184 281 168 q 267 220 267 201 l 267 220 q 276 267 267 245 q 305 304 286 288 l 305 304 q 356 327 325 319 q 431 336 387 336 l 431 336 l 528 336 l 528 210 q 505 181 519 195 q 471 157 491 168 l 471 157 q 427 139 452 146 q 374 132 403 132 z "},"b":{"ha":833,"x_min":100,"x_max":757,"o":"m 757 359 l 757 359 l 757 374 q 745 498 757 440 q 709 604 733 557 l 709 604 q 673 657 693 633 q 627 700 652 682 l 627 700 q 556 735 596 723 q 469 747 517 747 l 469 747 q 405 740 435 747 q 351 719 376 733 l 351 719 q 317 696 333 709 q 288 667 302 683 l 288 667 l 288 1042 l 100 1042 l 100 0 l 269 0 l 278 78 q 302 51 290 63 q 330 28 315 38 l 330 28 q 393 -3 358 7 q 471 -14 428 -14 l 471 -14 q 556 -2 517 -14 q 627 33 595 10 l 627 33 q 687 92 661 56 q 728 172 712 128 l 728 172 q 749 259 742 212 q 757 359 757 307 z m 568 374 l 568 374 l 568 359 q 566 304 568 331 q 558 256 564 278 l 558 256 q 538 201 551 225 q 504 162 525 177 l 504 162 q 469 145 489 151 q 423 139 448 139 l 423 139 q 371 146 394 139 q 332 165 349 153 l 332 165 q 307 190 317 176 q 288 220 296 203 l 288 220 l 288 513 q 302 537 294 526 q 318 557 309 548 l 318 557 q 362 585 336 575 q 422 594 388 594 l 422 594 q 467 588 447 594 q 502 571 486 583 l 502 571 q 537 531 526 553 q 557 481 549 509 l 557 481 q 566 430 563 457 q 568 374 568 403 z "},"c":{"ha":833,"x_min":79,"x_max":735,"o":"m 420 137 l 420 137 q 346 155 375 137 q 299 204 316 174 l 299 204 q 275 274 281 234 q 268 356 268 313 l 268 356 l 268 376 q 275 458 268 418 q 300 528 282 497 l 300 528 q 346 576 317 558 q 420 595 375 595 l 420 595 q 476 584 450 595 q 520 556 502 574 l 520 556 q 548 514 538 538 q 556 463 557 490 l 556 463 l 734 463 q 712 580 735 528 q 648 670 689 633 l 648 670 q 548 727 606 707 q 422 747 490 747 l 422 747 q 274 718 338 747 q 166 639 210 689 l 166 639 q 101 521 123 589 q 79 376 79 454 l 79 376 l 79 356 q 101 211 79 279 q 167 94 123 144 l 167 94 q 274 15 210 43 q 424 -14 338 -14 l 424 -14 q 544 6 487 -14 q 643 61 600 26 l 643 61 q 710 145 686 96 q 734 251 735 194 l 734 251 l 556 251 q 547 204 557 225 q 517 168 536 183 l 517 168 q 473 145 498 153 q 420 137 448 137 z "},"g":{"ha":833,"x_min":77,"x_max":743,"o":"m 77 372 l 77 372 l 77 358 q 97 210 77 278 q 157 92 118 142 l 157 92 q 250 15 195 43 q 373 -14 304 -14 l 373 -14 q 438 -6 408 -14 q 493 15 468 1 l 493 15 q 525 37 510 24 q 553 64 540 49 l 553 64 l 553 22 q 543 -45 553 -16 q 513 -96 532 -75 l 513 -96 q 459 -130 491 -118 q 385 -141 427 -141 l 385 -141 q 335 -136 359 -141 q 289 -121 311 -131 l 289 -121 q 245 -95 266 -111 q 205 -58 224 -79 l 205 -58 l 121 -172 q 178 -225 144 -203 q 248 -261 211 -247 l 248 -261 q 323 -282 286 -275 q 395 -289 361 -289 l 395 -289 q 536 -268 472 -289 q 646 -208 600 -248 l 646 -208 q 717 -109 692 -168 q 743 24 743 -51 l 743 24 l 743 734 l 571 734 l 564 664 q 534 695 550 681 q 498 719 517 709 l 498 719 q 443 740 473 733 q 374 747 412 747 l 374 747 q 250 720 305 747 q 157 644 195 693 l 157 644 q 97 525 118 594 q 77 372 77 456 z m 266 358 l 266 358 l 266 372 q 275 459 266 418 q 304 530 285 499 l 304 530 q 353 577 323 559 q 422 594 382 594 l 422 594 q 462 590 444 594 q 496 578 481 586 l 496 578 q 529 555 515 570 q 553 522 543 541 l 553 522 l 553 212 q 531 181 544 195 q 501 158 518 168 l 501 158 q 465 144 485 149 q 420 140 445 140 l 420 140 q 351 157 380 140 q 303 203 322 174 l 303 203 q 275 272 284 233 q 266 358 266 312 z "},"i":{"ha":833,"x_min":146,"x_max":744,"o":"m 545 734 l 146 734 l 146 580 l 355 580 l 355 153 l 146 153 l 146 0 l 744 0 l 744 153 l 545 153 l 545 734 z m 341 922 l 341 922 q 349 881 341 900 q 371 850 357 863 l 371 850 q 405 829 385 836 q 450 821 425 821 l 450 821 q 529 849 500 821 q 559 922 559 878 l 559 922 q 529 994 559 966 q 450 1022 500 1022 l 450 1022 q 405 1015 425 1022 q 371 994 385 1007 l 371 994 q 349 962 357 981 q 341 922 341 943 z "},"l":{"ha":833,"x_min":135,"x_max":755,"o":"m 545 1042 l 135 1042 l 135 888 l 355 888 l 355 153 l 135 153 l 135 0 l 755 0 l 755 153 l 545 153 l 545 1042 z "},"m":{"ha":833,"x_min":51,"x_max":776,"o":"m 218 645 l 213 734 l 51 734 l 51 0 l 222 0 l 222 549 q 230 566 226 558 q 239 578 234 573 l 239 578 q 256 590 247 586 q 278 594 266 594 l 278 594 q 298 591 289 594 q 315 581 308 588 l 315 581 q 326 559 322 573 q 330 525 330 546 l 330 525 l 330 0 l 496 0 l 496 541 q 496 554 496 549 q 496 560 496 559 l 496 560 q 505 573 500 568 q 515 584 509 579 l 515 584 q 531 591 523 589 q 551 594 540 594 l 551 594 q 571 591 561 594 q 588 581 581 588 l 588 581 q 600 559 595 572 q 604 524 604 545 l 604 524 l 604 0 l 776 0 l 776 524 q 764 627 776 585 q 731 696 752 669 l 731 696 q 681 735 709 723 q 618 747 652 747 l 618 747 q 570 741 592 747 q 530 722 547 734 l 530 722 q 504 699 515 712 q 482 669 492 686 l 482 669 q 468 700 476 686 q 448 722 459 713 l 448 722 q 412 741 433 735 q 366 747 392 747 l 366 747 q 276 720 313 747 q 218 645 239 692 l 218 645 z "},"o":{"ha":833,"x_min":70,"x_max":762,"o":"m 70 374 l 70 374 l 70 359 q 93 211 70 279 q 161 92 116 142 l 161 92 q 270 14 205 42 q 417 -14 334 -14 l 417 -14 q 564 14 499 -14 q 672 92 628 42 l 672 92 q 739 211 716 142 q 762 359 762 279 l 762 359 l 762 374 q 739 522 762 454 q 672 640 716 590 l 672 640 q 563 719 627 690 q 416 747 498 747 l 416 747 q 269 719 333 747 q 161 640 205 690 l 161 640 q 93 522 116 590 q 70 374 70 454 z m 258 359 l 258 359 l 258 374 q 267 458 258 418 q 295 529 276 498 l 295 529 q 344 577 314 559 q 416 595 374 595 l 416 595 q 488 577 458 595 q 537 529 518 559 l 537 529 q 564 458 555 498 q 573 374 573 418 l 573 374 l 573 359 q 564 273 573 313 q 537 203 555 233 l 537 203 q 488 155 518 172 q 417 137 458 137 l 417 137 q 344 155 374 137 q 295 203 314 172 l 295 203 q 267 273 276 233 q 258 359 258 313 z "},"r":{"ha":833,"x_min":195,"x_max":760,"o":"m 623 747 l 623 747 q 486 712 549 747 q 379 614 424 676 l 379 614 l 378 630 l 370 734 l 195 734 l 195 0 l 383 0 l 383 441 q 416 495 396 472 q 463 533 435 518 l 463 533 q 516 552 486 546 q 582 559 545 559 l 582 559 q 656 554 617 559 q 732 541 695 550 l 732 541 l 760 729 q 702 742 738 736 q 623 747 665 747 z "},"s":{"ha":833,"x_min":83,"x_max":752,"o":"m 569 201 l 569 201 q 561 170 569 184 q 535 145 552 156 l 535 145 q 490 128 517 134 q 426 121 463 121 l 426 121 q 367 127 395 121 q 315 147 338 134 l 315 147 q 279 181 293 160 q 262 233 264 203 l 262 233 l 83 233 q 105 143 83 188 q 170 64 127 99 l 170 64 q 276 7 212 29 q 422 -14 339 -14 l 422 -14 q 558 2 497 -14 q 663 49 619 19 l 663 49 q 729 120 705 79 q 752 210 752 161 l 752 210 q 729 301 752 262 q 664 366 705 339 l 664 366 q 566 410 623 393 q 442 437 509 427 l 442 437 q 366 453 396 444 q 319 474 336 463 l 319 474 q 295 499 302 485 q 288 529 288 513 l 288 529 q 296 560 288 545 q 319 585 304 574 l 319 585 q 361 604 335 597 q 421 611 387 611 l 421 611 q 491 601 462 611 q 536 574 519 591 l 536 574 q 555 545 549 561 q 561 511 561 529 l 561 511 l 749 511 q 727 605 749 562 q 663 680 705 648 l 663 680 q 559 729 620 711 q 421 747 498 747 l 421 747 q 290 729 348 747 q 191 680 231 711 l 191 680 q 128 607 150 648 q 106 520 106 566 l 106 520 q 128 437 106 473 q 187 374 149 401 l 187 374 q 278 327 225 347 q 396 295 332 308 l 396 295 q 480 276 447 286 q 534 256 513 267 l 534 256 q 561 231 553 244 q 569 201 569 218 z "},"t":{"ha":833,"x_min":85,"x_max":747,"o":"m 441 734 l 441 913 l 253 913 l 253 734 l 85 734 l 85 595 l 253 595 l 253 261 q 272 137 253 189 q 326 52 291 85 l 326 52 q 410 2 361 18 q 519 -14 459 -14 l 519 -14 q 583 -11 551 -14 q 645 -3 615 -8 l 645 -3 q 701 11 675 3 q 747 31 728 20 l 747 31 l 729 161 q 698 154 716 157 q 660 148 680 151 l 660 148 q 616 142 639 144 q 572 140 593 140 l 572 140 q 518 147 542 140 q 477 170 494 154 l 477 170 q 451 213 460 186 q 441 279 441 239 l 441 279 l 441 595 l 715 595 l 715 734 l 441 734 z "},"w":{"ha":833,"x_min":18,"x_max":802,"o":"m 18 734 l 150 0 l 315 0 l 393 392 l 408 467 l 424 392 l 505 0 l 670 0 l 802 734 l 629 734 l 574 301 l 565 230 l 552 300 l 473 734 l 347 734 l 267 298 l 254 228 l 245 298 l 191 734 l 18 734 z "}}}
